<svg xmlns="http://www.w3.org/2000/svg" xmlns:xlink="http://www.w3.org/1999/xlink" viewBox="0,0,256,256" width="100px" height="100px"><g fill="none" fill-rule="nonzero" stroke="none" stroke-width="1" stroke-linecap="butt" stroke-linejoin="miter" stroke-miterlimit="10" stroke-dasharray="" stroke-dashoffset="0" font-family="none" font-weight="none" font-size="none" text-anchor="none" style="mix-blend-mode: normal"><g transform="translate(261.20832,-1.28003) rotate(90) scale(2.56,2.56)"><rect x="-5.00137" y="77.78112" transform="rotate(-45.001)" width="9.999" height="35.355" fill="#fafafa"></rect><circle cx="41" cy="40" r="21" fill="#000000"></circle><path d="M41,62c-12.131,0 -22,-9.869 -22,-22c0,-12.131 9.869,-22 22,-22c12.131,0 22,9.869 22,22c0,12.131 -9.869,22 -22,22zM41,24c-8.822,0 -16,7.178 -16,16c0,8.822 7.178,16 16,16c8.822,0 16,-7.178 16,-16c0,-8.822 -7.178,-16 -16,-16z" fill="#ffffff"></path><path d="M41,65.987c-6.658,0 -13.316,-2.534 -18.385,-7.602l7.07,-7.072c6.238,6.238 16.391,6.238 22.629,0c6.237,-6.238 6.237,-16.389 -0.001,-22.628l7.072,-7.07c10.136,10.138 10.136,26.632 0,36.77c-5.069,5.068 -11.727,7.602 -18.385,7.602z" fill="#00f3ee"></path><path d="M49.803,48.025l-2.828,-2.828c1.492,-1.492 2.313,-3.477 2.313,-5.586c0,-2.11 -0.821,-4.094 -2.313,-5.586c-1.492,-1.492 -3.476,-2.313 -5.586,-2.313c-2.109,0 -4.094,0.821 -5.586,2.313l-2.828,-2.828c2.247,-2.248 5.235,-3.485 8.414,-3.485c3.179,0 6.167,1.237 8.414,3.485c2.248,2.247 3.485,5.235 3.485,8.414c0,3.179 -1.237,6.167 -3.485,8.414z" fill="#edf7f5"></path></g></g></svg>